<?xml version="1.0" encoding="utf-8"?>
<!-- Generator: Adobe Illustrator 23.0.0, SVG Export Plug-In . SVG Version: 6.00 Build 0)  -->
<svg version="1.1" id="Layer_1" xmlns="http://www.w3.org/2000/svg" xmlns:xlink="http://www.w3.org/1999/xlink" wide="200px" height="159.33px"
	 viewBox="0 0 200 159.33" style="enable-background:new 0 0 200 159.33;" xml:space="preserve">
<style type="text/css">
	.st0{fill:#EE3124;}
	.st1{fill:#8DC63F;}
</style>
<g>
	<polygon class="st0" points="56.58,159.33 36.76,120.84 73.56,49.44 130.14,49.44 149.96,87.9 93.36,87.9 	"/>
	<polygon class="st1" points="19.8,87.9 0,49.44 59.41,49.44 39.61,87.9 	"/>
	<g>
		<path class="st0" d="M200,0l-13.72,0v20.56h4.59V4.5l6.82,0L200,0z M166.22,20.56h14.9v-4.5H170.8v-3.53h9.74v-4.5h-9.74V4.5
			h10.31V0h-14.9V20.56z M155.91,20.56h5.16V0.02h-4.58v13.45L147.88,0h-5.16v20.56h4.58V7.09L155.91,20.56z M139.26,14.74V13.8
			c0-3.19-2.3-5.78-5.14-5.78h-6.29c-0.64,0-1.15-0.58-1.15-1.29V5.78c0-0.71,0.51-1.29,1.15-1.29h6.29c0.57,0,2.47,0.15,2.86,0.32
			V0.32C136.11,0.11,135.1,0,134.11,0h-6.86c-2.85,0-5.14,2.59-5.14,5.78v0.94c0,3.19,2.29,5.78,5.14,5.78h6.29
			c0.64,0,1.16,0.58,1.16,1.29v0.94c0,0.71-0.52,1.29-1.16,1.29l-6.29,0c-1.11,0-2.17-0.25-3.14-0.69l-2.01,3.9
			c1.56,0.82,3.3,1.28,5.14,1.29l6.86,0C136.96,20.52,139.26,17.93,139.26,14.74 M112.93,20.56h5.16V0.02h-4.58v13.45L104.91,0
			h-5.16v20.56h4.58V7.09L112.93,20.56z M93.16,20.56h4.88L88.74,0h-4.88l-9.29,20.56h4.88l2.32-5.14h9.07L93.16,20.56z M88.8,10.92
			h-4.99l2.5-5.53L88.8,10.92z M69.92,20.56h4.65l-4.62-8.98c1.4-1.03,2.33-2.81,2.33-4.84l-0.01-0.95c0-3.2-2.3-5.79-5.15-5.79
			H56.24v20.56h4.59v-8.03h4.97L69.92,20.56z M67.71,6.74c0,0.71-0.52,1.29-1.16,1.29h-5.73V4.5h5.72c0.64,0,1.16,0.58,1.16,1.3
			L67.71,6.74z M46.49,20.56h4.59V0L37.3,0l2.32,4.5l6.87,0V20.56z"/>
	</g>
</g>
</svg>
